<?xml version="1.0" standalone="no"?>
<!DOCTYPE svg PUBLIC "-//W3C//DTD SVG 20010904//EN"
 "http://www.w3.org/TR/2001/REC-SVG-20010904/DTD/svg10.dtd">
<svg version="1.0" xmlns="http://www.w3.org/2000/svg"
 width="407.000000pt" height="527.000000pt" viewBox="0 0 407.000000 527.000000"
 preserveAspectRatio="xMidYMid meet">

<g transform="translate(0.000000,527.000000) scale(0.100000,-0.100000)"
fill="#000000" stroke="none">
<path d="M221 4873 c-22 -142 -44 -279 -47 -305 l-7 -48 140 0 141 0 6 31 c12
60 12 59 -74 59 -73 0 -80 2 -80 20 0 11 16 123 35 250 19 127 35 235 35 240
0 6 -24 10 -54 10 l-53 0 -42 -257z"/>
<path d="M623 4895 c-113 -57 -164 -195 -112 -302 28 -58 77 -83 161 -83 141
0 249 120 236 262 -9 91 -66 141 -166 146 -57 3 -75 -1 -119 -23z m148 -94
c34 -34 38 -74 13 -127 -41 -86 -133 -100 -172 -27 -37 68 30 183 106 183 13
0 37 -13 53 -29z"/>
<path d="M1080 4909 c-77 -31 -140 -137 -140 -237 0 -70 16 -109 56 -141 36
-28 116 -29 162 -1 18 11 35 20 39 20 10 0 -7 -82 -24 -111 -34 -58 -111 -63
-141 -9 -15 27 -22 30 -69 30 -52 0 -53 -1 -53 -29 0 -36 42 -89 87 -107 42
-18 135 -18 176 0 86 37 116 105 156 356 17 107 33 203 35 213 4 14 -4 17 -50
17 -41 0 -54 -4 -54 -15 0 -20 -7 -19 -37 5 -28 22 -99 26 -143 9z m122 -90
c11 -6 26 -26 34 -45 20 -48 4 -103 -41 -143 -45 -39 -86 -41 -122 -5 -22 23
-25 32 -21 80 8 91 84 148 150 113z"/>
<path d="M1551 4906 c-161 -58 -211 -286 -81 -373 45 -31 148 -32 205 -3 22
11 40 20 41 20 1 0 4 -33 7 -72 3 -40 8 -83 12 -95 7 -22 6 -23 -67 -23 l-74
0 -415 -417 c-442 -445 -475 -485 -572 -678 -58 -117 -102 -241 -129 -368 -30
-146 -30 -408 0 -554 61 -285 196 -537 399 -743 l83 -84 -63 -64 c-34 -34
-173 -174 -309 -310 -136 -136 -248 -250 -248 -254 0 -5 243 -8 541 -8 l541 0
47 -49 c53 -56 102 -70 168 -48 34 11 39 16 43 52 l5 40 234 3 c129 1 238 -1
242 -5 10 -10 12 -79 4 -120 -6 -26 -3 -34 19 -48 21 -14 31 -15 54 -6 29 12
122 11 122 -1 0 -8 -66 -432 -75 -480 -4 -28 -4 -28 49 -28 51 0 55 2 60 27
12 58 96 617 96 639 0 22 -4 24 -50 24 -56 0 -53 -4 -74 90 l-15 64 323 326
c182 183 349 361 383 407 120 162 222 401 259 603 23 128 23 372 0 500 -37
203 -139 442 -259 603 -33 45 -98 120 -144 167 l-83 85 302 305 c167 167 306
306 311 308 37 18 -56 22 -563 22 l-571 0 -64 133 c-36 72 -76 145 -90 160
-14 15 -54 39 -90 52 -75 28 -95 31 -95 11 0 -9 -18 -15 -51 -19 -28 -4 -64
-13 -81 -22 -17 -8 -32 -14 -34 -13 -1 2 1 24 6 49 23 122 -49 210 -172 208
-29 0 -68 -6 -87 -13z m124 -101 c62 -61 1 -205 -87 -205 -72 0 -104 99 -55
171 41 61 101 76 142 34z m499 -401 c11 -29 6 -44 -14 -44 -22 0 -23 3 -14 38
7 26 19 29 28 6z m196 -170 c53 -95 120 -283 120 -334 0 -15 7 -44 15 -63 8
-20 15 -56 15 -80 0 -56 -24 -80 -80 -79 -89 1 -101 18 -107 152 -3 69 -11
111 -28 155 -21 54 -85 281 -85 303 0 9 63 39 86 41 6 1 35 -42 64 -95z m-336
-544 l29 -46 83 -1 83 0 23 33 c42 62 66 38 102 -101 15 -55 41 -130 57 -166
l31 -66 -25 -49 c-13 -27 -27 -65 -30 -85 -10 -64 -50 -185 -55 -164 -7 34
-52 73 -185 161 -182 120 -300 178 -349 171 -34 -5 -38 -3 -38 17 0 13 22 43
56 76 63 63 104 130 130 213 15 48 21 57 38 55 12 -2 34 -23 50 -48z m855
-195 c147 -164 250 -371 302 -606 20 -86 24 -133 24 -269 0 -229 -35 -384
-130 -585 -76 -159 -149 -249 -449 -552 -154 -156 -281 -281 -283 -279 -2 2 2
44 8 92 l12 89 217 220 c269 273 337 362 409 532 117 275 131 581 39 863 -46
142 -148 317 -247 423 l-44 48 -39 -38 c-21 -20 -38 -42 -38 -48 0 -6 14 -24
30 -40 17 -16 52 -61 79 -99 263 -382 266 -858 8 -1243 -30 -46 -122 -149
-224 -253 l-172 -175 0 85 0 85 125 130 c189 196 268 326 316 522 30 124 30
322 -1 447 -36 147 -115 300 -211 409 l-43 48 -38 -37 c-22 -21 -39 -42 -39
-46 0 -4 23 -36 51 -70 62 -77 141 -238 165 -338 24 -97 24 -287 0 -384 -23
-95 -65 -192 -119 -273 -50 -74 -203 -240 -213 -230 -12 11 7 87 22 87 10 0
14 15 14 58 0 46 4 63 20 77 37 33 100 142 130 223 72 198 58 402 -41 592 -40
77 -115 174 -128 165 -16 -9 18 123 48 185 24 51 58 92 163 197 l132 132 45
-42 c25 -23 70 -69 100 -102z m-1079 -324 c0 -5 66 -44 146 -85 95 -50 161
-91 189 -119 l43 -44 -55 9 c-30 5 -117 22 -192 38 -168 36 -181 46 -181 146
0 62 1 64 25 64 14 0 25 -4 25 -9z m605 -247 c89 -150 104 -353 38 -531 -9
-24 -20 -43 -24 -43 -5 0 -9 26 -9 58 -1 31 -7 84 -15 117 -8 33 -15 78 -15
101 0 38 -28 132 -64 216 -22 52 -20 104 6 140 l21 30 19 -23 c10 -13 29 -42
43 -65z m-450 6 c96 -19 181 -30 238 -30 81 0 87 -1 87 -21 0 -11 14 -52 31
-91 17 -38 34 -93 39 -121 42 -240 42 -249 41 -511 -1 -110 -3 -127 -15 -117
-10 8 -58 11 -149 10 -74 -1 -139 1 -145 5 -5 3 -8 23 -5 44 4 31 -3 50 -43
116 -32 54 -47 89 -46 110 4 78 15 142 28 157 8 8 26 44 40 80 14 35 31 70 36
77 7 8 7 12 0 12 -15 0 -27 -20 -48 -75 -10 -27 -26 -63 -35 -80 -10 -16 -22
-52 -28 -80 -10 -52 -56 -263 -66 -301 -5 -21 -6 -21 -47 -7 -24 8 -98 17
-165 20 -130 6 -134 8 -108 53 9 15 14 53 15 95 0 120 29 356 56 455 34 129
41 146 80 180 19 16 34 34 34 40 0 14 7 13 175 -20z m39 -669 c14 -27 14 -30
-11 -52 l-26 -24 6 40 c4 22 7 46 7 53 0 20 8 14 24 -17z m97 -223 c17 -6 29
-16 27 -24 -4 -17 -348 -364 -348 -351 0 5 4 26 9 46 5 20 15 63 21 96 12 58
16 64 134 183 120 122 121 123 124 92 3 -25 10 -34 33 -42z m-487 -75 c-9 -21
-24 -51 -34 -68 -10 -16 -23 -55 -30 -85 -12 -55 -15 -58 -394 -437 l-381
-383 -77 0 c-43 0 -78 3 -78 7 0 10 992 1003 1002 1003 4 0 0 -17 -8 -37z
m540 -139 c9 -25 7 -100 -4 -130 -9 -23 -456 -484 -470 -484 -3 0 -10 11 -16
25 -9 18 -9 39 1 86 l13 62 228 228 c126 126 232 229 235 229 4 0 10 -7 13
-16z m-642 -291 c-5 -10 -12 -52 -15 -93 l-6 -75 -184 -187 -183 -188 -82 0
c-45 0 -82 3 -82 7 0 10 543 553 553 553 4 0 4 -8 -1 -17z m103 -49 c36 -9 65
-20 65 -25 0 -4 -5 -20 -11 -36 -6 -15 -16 -55 -23 -88 l-12 -60 -64 3 c-36 2
-65 5 -66 5 0 1 4 50 9 110 8 80 14 107 24 107 8 0 43 -7 78 -16z m554 -49 c5
-26 7 -56 4 -64 -3 -9 -87 -98 -187 -198 l-181 -183 -77 0 c-43 0 -78 3 -78 7
0 15 495 502 502 495 4 -4 12 -30 17 -57z m181 -73 c0 -20 -18 -127 -26 -155
-5 -15 -12 -17 -45 -12 -27 5 -39 3 -39 -5 0 -6 -10 -10 -22 -8 -22 3 -23 8
-25 88 -1 47 0 91 2 98 3 8 28 12 80 12 66 0 75 -2 75 -18z m-211 -282 l-34
-90 -65 0 -65 0 95 95 c52 52 96 92 98 90 3 -2 -11 -45 -29 -95z m-714 18
c-10 -26 -12 -44 -5 -69 5 -18 8 -34 6 -36 -2 -2 -31 -3 -64 -1 l-60 3 66 72
c37 39 68 70 70 69 1 -2 -4 -19 -13 -38z"/>
<path d="M2321 4051 c-15 -10 -14 -14 18 -136 17 -63 21 -70 46 -73 15 -2 41
2 57 9 29 12 30 14 24 63 -3 28 -13 73 -22 99 l-16 47 -46 0 c-26 0 -53 -4
-61 -9z m97 -14 c6 -6 17 -47 25 -89 l15 -78 -40 -11 c-22 -5 -42 -8 -44 -6
-2 2 -14 41 -25 87 -21 80 -21 84 -3 97 23 16 58 17 72 0z"/>
<path d="M1896 3525 c-9 -30 -19 -61 -22 -70 -4 -10 0 -15 10 -15 16 0 20 11
17 39 -2 7 2 10 8 7 6 -4 19 13 31 38 25 56 25 56 -4 56 -21 0 -27 -8 -40 -55z"/>
<path d="M1967 3517 c-13 -34 -23 -65 -20 -69 8 -14 33 -8 27 6 -3 8 6 37 20
64 20 39 22 51 12 55 -9 4 -22 -15 -39 -56z"/>
<path d="M2032 3505 c-24 -48 -29 -65 -18 -65 8 0 17 8 19 18 4 13 5 11 6 -5
2 -41 20 -24 36 35 20 69 20 76 3 79 -7 2 -28 -26 -46 -62z m28 -10 c0 -8 -4
-15 -10 -15 -5 0 -7 7 -4 15 4 8 8 15 10 15 2 0 4 -7 4 -15z"/>
<path d="M2138 3548 c9 -9 5 -24 -18 -63 -35 -62 -36 -65 -10 -65 13 0 18 5
14 14 -3 8 8 35 26 61 33 48 32 65 -3 65 -16 0 -18 -3 -9 -12z"/>
<path d="M2190 3484 c-24 -79 -24 -74 -5 -74 9 0 15 9 15 24 0 14 5 28 10 31
6 3 10 17 10 31 0 14 7 27 15 30 22 9 19 24 -5 24 -15 0 -24 -14 -40 -66z"/>
<path d="M2252 3482 c-16 -75 -15 -77 7 -79 14 -1 22 11 35 58 21 76 20 79 -7
79 -20 0 -25 -8 -35 -58z m35 16 c-3 -8 -6 -5 -6 6 -1 11 2 17 5 13 3 -3 4
-12 1 -19z"/>
<path d="M2329 3513 c0 -10 -1 -38 0 -63 0 -32 -2 -39 -8 -26 -7 19 -8 19 -13
-2 -6 -23 8 -40 22 -26 13 15 22 134 10 134 -5 0 -10 -8 -11 -17z"/>
<path d="M2211 3333 c-6 -21 -13 -57 -17 -80 -5 -36 -3 -43 17 -53 30 -17 42
0 58 86 10 55 10 69 -1 75 -29 19 -47 9 -57 -28z"/>
<path d="M1744 2325 l-29 -27 29 21 c16 12 40 21 55 20 27 0 75 -17 54 -18 -7
-1 -36 -23 -64 -51 -28 -27 -55 -50 -59 -50 -5 0 -11 15 -13 33 -2 17 -3 13
-2 -11 1 -23 -2 -45 -7 -48 -16 -10 13 -24 49 -24 22 0 44 10 68 32 33 28 36
35 30 65 -4 21 -2 40 6 49 16 19 11 23 -42 30 -40 5 -49 3 -75 -21z"/>
<path d="M2585 868 c-2 -7 -25 -150 -50 -318 -26 -168 -49 -317 -52 -332 -5
-28 -5 -28 49 -28 l54 0 52 333 c29 182 53 338 52 345 0 8 -17 12 -50 12 -32
0 -52 -5 -55 -12z"/>
<path d="M3816 872 c-3 -5 -14 -69 -26 -143 -11 -74 -22 -144 -25 -157 l-5
-22 -30 22 c-37 27 -110 29 -159 4 -109 -57 -162 -212 -111 -324 35 -77 147
-104 214 -51 29 23 36 24 36 4 0 -11 12 -15 49 -15 46 0 50 2 55 27 7 34 106
645 106 656 0 10 -98 9 -104 -1z m-95 -401 c35 -35 38 -75 9 -131 -36 -70
-112 -91 -155 -44 -46 50 -27 145 38 184 44 28 74 25 108 -9z"/>
<path d="M1801 528 c-24 -150 -45 -288 -48 -305 l-6 -33 142 0 c105 0 143 3
145 13 3 6 7 29 10 50 l5 37 -85 0 c-68 0 -84 3 -84 15 0 12 51 341 73 473 4
21 1 22 -52 22 l-56 0 -44 -272z"/>
<path d="M2850 591 c-85 -27 -139 -85 -166 -179 -26 -89 -1 -177 62 -218 37
-25 112 -23 157 4 29 17 37 18 37 7 0 -11 13 -15 55 -15 30 0 55 3 55 6 0 10
50 338 55 362 5 21 2 22 -50 22 -43 0 -55 -3 -55 -16 0 -13 -4 -12 -28 4 -33
24 -87 34 -122 23z m107 -117 c23 -23 25 -31 21 -81 -4 -49 -10 -61 -41 -90
-57 -51 -116 -42 -143 23 -20 48 -4 103 41 143 45 39 86 41 122 5z"/>
<path d="M3385 593 c-11 -3 -32 -14 -47 -25 -24 -16 -28 -17 -28 -4 0 13 -12
16 -55 16 -53 0 -54 0 -60 -32 -9 -57 -55 -349 -55 -353 0 -3 24 -5 53 -5 l54
0 12 83 c27 181 57 232 134 225 35 -3 38 -2 47 32 13 48 13 57 -6 64 -17 6
-18 6 -49 -1z"/>
<path d="M2115 408 c-15 -95 -29 -183 -32 -195 -5 -22 -2 -23 49 -23 l55 0 27
178 c15 97 30 185 33 195 4 15 -3 17 -50 17 l-54 0 -28 -172z"/>
</g>
</svg>
